HIERARCHY
ROOT Hips
{
  OFFSET 5.84602e-005 68.8428 3.50346
  CHANNELS 6 Xposition Yposition Zposition Zrotation Xrotation Yrotation
  JOINT Spine
  {
    OFFSET 0 8.597 -4.6522
    CHANNELS 3 Zrotation Xrotation Yrotation
    JOINT Spine1
    {
      OFFSET 0 7.8454 0.4098
      CHANNELS 3 Zrotation Xrotation Yrotation
      JOINT Spine2
      {
        OFFSET 0 9.7078 -2.1609
        CHANNELS 3 Zrotation Xrotation Yrotation
        JOINT Neck
        {
          OFFSET 0 21.8761 -0.4549
          CHANNELS 3 Zrotation Xrotation Yrotation
          JOINT Head
          {
            OFFSET 0 12.3537 3.3602
            CHANNELS 3 Zrotation Xrotation Yrotation
            End Site
            {
              OFFSET 0.0001 18.9506 0.5657
            }
          }
        }
        JOINT LeftShoulder
        {
          OFFSET 2.2086 21.1115 7.2329
          CHANNELS 3 Zrotation Xrotation Yrotation
          JOINT LeftArm
          {
            OFFSET 13.1193 3.0282 -4.8998
            CHANNELS 3 Zrotation Xrotation Yrotation
            JOINT LeftForeArm
            {
              OFFSET 27.4081 -0.0973053 -0.2375
              CHANNELS 3 Zrotation Xrotation Yrotation
              JOINT LeftHand
              {
                OFFSET 22.8641 0.0662994 -0.1369
                CHANNELS 3 Zrotation Xrotation Yrotation
                JOINT LeftHandIndex1
                {
                  OFFSET 8.8614 0.775009 2.4612
                  CHANNELS 3 Zrotation Xrotation Yrotation
                  JOINT LeftHandIndex2
                  {
                    OFFSET 3.3146 -0.808304 0.5841
                    CHANNELS 3 Zrotation Xrotation Yrotation
                    JOINT LeftHandIndex3
                    {
                      OFFSET 2.2628 -0.552002 0.3989
                      CHANNELS 3 Zrotation Xrotation Yrotation
                      End Site
                      {
                        OFFSET 1.6102 -0.4807 0.2612
                      }
                    }
                  }
                }
                JOINT LeftHandMiddle1
                {
                  OFFSET 8.9937 0.895004 0.2143
                  CHANNELS 3 Zrotation Xrotation Yrotation
                  JOINT LeftHandMiddle2
                  {
                    OFFSET 4.0984 0.0113983 -0.0242
                    CHANNELS 3 Zrotation Xrotation Yrotation
                    JOINT LeftHandMiddle3
                    {
                      OFFSET 2.2716 0.00689697 -0.0138001
                      CHANNELS 3 Zrotation Xrotation Yrotation
                      End Site
                      {
                        OFFSET 2.0404 -0.1441 0.0027
                      }
                    }
                  }
                }
                JOINT LeftHandRing1
                {
                  OFFSET 8.5234 0.597198 -2.0164
                  CHANNELS 3 Zrotation Xrotation Yrotation
                  JOINT LeftHandRing2
                  {
                    OFFSET 3.7188 -0.188293 -0.2328
                    CHANNELS 3 Zrotation Xrotation Yrotation
                    JOINT LeftHandRing3
                    {
                      OFFSET 2.1191 -0.106598 -0.1332
                      CHANNELS 3 Zrotation Xrotation Yrotation
                      End Site
                      {
                        OFFSET 1.8737 -0.2304 -0.0886
                      }
                    }
                  }
                }
                JOINT LeftHandPinky1
                {
                  OFFSET 7.9094 -0.601089 -3.4825
                  CHANNELS 3 Zrotation Xrotation Yrotation
                  JOINT LeftHandPinky2
                  {
                    OFFSET 2.2874 -0.477005 -0.6314
                    CHANNELS 3 Zrotation Xrotation Yrotation
                    JOINT LeftHandPinky3
                    {
                      OFFSET 1.6774 -0.349396 -0.4633
                      CHANNELS 3 Zrotation Xrotation Yrotation
                      End Site
                      {
                        OFFSET 1.4888 -0.4091 -0.3416
                      }
                    }
                  }
                }
                JOINT LeftHandThumb1
                {
                  OFFSET 1.833 -1.3875 1.3896
                  CHANNELS 3 Zrotation Xrotation Yrotation
                  JOINT LeftHandThumb2
                  {
                    OFFSET 3.4129 -1.121 2.5732
                    CHANNELS 3 Zrotation Xrotation Yrotation
                    JOINT LeftHandThumb3
                    {
                      OFFSET 2.2474 -0.804199 1.6192
                      CHANNELS 3 Zrotation Xrotation Yrotation
                      End Site
                      {
                        OFFSET 1.6527 -0.5689 1.1317
                      }
                    }
                  }
                }
              }
            }
          }
        }
        JOINT RightShoulder
        {
          OFFSET -2.2086 21.1115 7.2329
          CHANNELS 3 Zrotation Xrotation Yrotation
          JOINT RightArm
          {
            OFFSET -13.1216 3.0287 -4.9007
            CHANNELS 3 Zrotation Xrotation Yrotation
            JOINT RightForeArm
            {
              OFFSET -27.4081 -0.0973053 -0.2375
              CHANNELS 3 Zrotation Xrotation Yrotation
              JOINT RightHand
              {
                OFFSET -22.8641 0.0664063 -0.1369
                CHANNELS 3 Zrotation Xrotation Yrotation
                JOINT RightHandIndex1
                {
                  OFFSET -8.8614 0.774994 2.4612
                  CHANNELS 3 Zrotation Xrotation Yrotation
                  JOINT RightHandIndex2
                  {
                    OFFSET -3.3146 -0.808304 0.5841
                    CHANNELS 3 Zrotation Xrotation Yrotation
                    JOINT RightHandIndex3
                    {
                      OFFSET -2.2628 -0.552002 0.3989
                      CHANNELS 3 Zrotation Xrotation Yrotation
                      End Site
                      {
                        OFFSET -1.6102 -0.4807 0.2612
                      }
                    }
                  }
                }
                JOINT RightHandMiddle1
                {
                  OFFSET -8.9937 0.894989 0.2143
                  CHANNELS 3 Zrotation Xrotation Yrotation
                  JOINT RightHandMiddle2
                  {
                    OFFSET -4.0984 0.0113983 -0.0242
                    CHANNELS 3 Zrotation Xrotation Yrotation
                    JOINT RightHandMiddle3
                    {
                      OFFSET -2.2716 0.00691223 -0.0138001
                      CHANNELS 3 Zrotation Xrotation Yrotation
                      End Site
                      {
                        OFFSET -2.0404 -0.1441 0.0027
                      }
                    }
                  }
                }
                JOINT RightHandRing1
                {
                  OFFSET -8.5234 0.597198 -2.0164
                  CHANNELS 3 Zrotation Xrotation Yrotation
                  JOINT RightHandRing2
                  {
                    OFFSET -3.7188 -0.188309 -0.2328
                    CHANNELS 3 Zrotation Xrotation Yrotation
                    JOINT RightHandRing3
                    {
                      OFFSET -2.1191 -0.106598 -0.1332
                      CHANNELS 3 Zrotation Xrotation Yrotation
                      End Site
                      {
                        OFFSET -1.8737 -0.2304 -0.0886
                      }
                    }
                  }
                }
                JOINT RightHandPinky1
                {
                  OFFSET -7.9094 -0.601105 -3.4825
                  CHANNELS 3 Zrotation Xrotation Yrotation
                  JOINT RightHandPinky2
                  {
                    OFFSET -2.2874 -0.477005 -0.6314
                    CHANNELS 3 Zrotation Xrotation Yrotation
                    JOINT RightHandPinky3
                    {
                      OFFSET -1.6774 -0.349396 -0.4633
                      CHANNELS 3 Zrotation Xrotation Yrotation
                      End Site
                      {
                        OFFSET -1.4888 -0.4091 -0.3416
                      }
                    }
                  }
                }
                JOINT RightHandThumb1
                {
                  OFFSET -1.833 -1.38751 1.3896
                  CHANNELS 3 Zrotation Xrotation Yrotation
                  JOINT RightHandThumb2
                  {
                    OFFSET -3.41299 -1.12099 2.5732
                    CHANNELS 3 Zrotation Xrotation Yrotation
                    JOINT RightHandThumb3
                    {
                      OFFSET -2.24741 -0.804108 1.6192
                      CHANNELS 3 Zrotation Xrotation Yrotation
                      End Site
                      {
                        OFFSET -1.6527 -0.5689 1.1317
                      }
                    }
                  }
                }
              }
            }
          }
        }
      }
    }
  }
  JOINT RightUpLeg
  {
    OFFSET -9.1966 3.8861 -0.7581
    CHANNELS 3 Zrotation Xrotation Yrotation
    JOINT RightLeg
    {
      OFFSET -0.7359 -41.0265 0
      CHANNELS 3 Zrotation Xrotation Yrotation
      JOINT RightFoot
      {
        OFFSET 0 -40.2855 0
        CHANNELS 3 Zrotation Xrotation Yrotation
        JOINT RightToeBase
        {
          OFFSET 0 -5.6122 11.7359
          CHANNELS 3 Zrotation Xrotation Yrotation
          End Site
          {
            OFFSET 0 0 7.8731
          }
        }
      }
    }
  }
  JOINT LeftUpLeg
  {
    OFFSET 9.1965 3.8864 -0.7581
    CHANNELS 3 Zrotation Xrotation Yrotation
    JOINT LeftLeg
    {
      OFFSET 0.7359 -41.0268 0
      CHANNELS 3 Zrotation Xrotation Yrotation
      JOINT LeftFoot
      {
        OFFSET 0 -40.2855 0
        CHANNELS 3 Zrotation Xrotation Yrotation
        JOINT LeftToeBase
        {
          OFFSET 0 -5.6122 11.7359
          CHANNELS 3 Zrotation Xrotation Yrotation
          End Site
          {
            OFFSET 0 0 7.8731
          }
        }
      }
    }
  }
}
MOTION
Frames:	5
Frame Time:	0.0333333
-35.7855 8.82164 6.47995 5.64008e-015 60.9968 180 -0.584705 3.98347 -0.0446872 -1.17055 7.96721 -0.0486844 -1.17055 7.96722 -0.0486837 -7.90894e-005 -29.4002 -1.98661e-005 -1.21991e-007 -20.0017 2.64265e-008 -5.7103 19.4736 -27.8481 -44.1438 -8.60759 43.9921 0.0369289 -5.65447 -78.6591 -10.8051 -4.73115 -8.3941 -2.38542e-015 -1.05853e-014 -0 -3.57812e-015 -7.25564e-015 -0 -3.97569e-016 -1.35671e-014 1.59028e-015 -2.38542e-015 -1.05853e-014 -0 -0.0146468 -8.56832e-005 2.96541e-006 -2.538e-031 9.14409e-015 1.59028e-015 -2.38542e-015 -1.05853e-014 -0 -0.0187744 -0.001178 5.93766e-005 3.97569e-016 3.97569e-015 -0 -2.38542e-015 -1.05853e-014 -0 -0.0122357 -0.00323456 0.000670432 2.64834e-031 4.77083e-015 -3.18055e-015 -2.38542e-015 -1.05853e-014 -0 -3.57812e-015 -7.25564e-015 -0 -3.97569e-016 -1.35671e-014 1.59028e-015 4.58841 19.3155 28.2079 44.6021 -8.93894 -44.3807 -0.0398621 -5.65669 78.6545 10.5584 -4.80994 8.34898 -5.96354e-016 -5.46658e-016 -3.18055e-015 -2.5842e-015 -1.35174e-014 -3.18055e-015 7.95139e-016 -1.41634e-014 -0 -5.96354e-016 -5.46658e-016 -3.18055e-015 0.0149885 -8.88601e-005 2.34733e-006 4.77083e-015 -2.01766e-014 3.18055e-015 -5.96354e-016 -5.46658e-016 -3.18055e-015 0.0189891 -0.00119123 -5.6439e-005 1.98785e-016 4.96962e-017 -1.74931e-014 -5.96354e-016 -5.46658e-016 -3.18055e-015 0.0122689 -0.00324408 -0.000673524 -1.98785e-016 -6.70898e-015 3.18055e-015 -5.96354e-016 -5.46658e-016 -3.18055e-015 -2.5842e-015 -1.35174e-014 -3.18055e-015 7.95139e-016 -1.41634e-014 -0 -33.8148 -18.7837 -51.2518 -80.0546 48.593 104.245 18.2516 8.69795 -33.8696 -4.79139e-007 -1.09503e-006 -1.38351e-008 32.9009 -19.1341 51.5156 81.888 48.6525 -105.683 -17.4398 7.7227 34.5235 3.68439e-007 3.12868e-007 -3.14829e-006 
-35.7855 8.82152 6.4801 5.64009e-015 60.9968 180 -0.588228 3.88501 -0.0426237 -1.17763 7.77025 -0.0453178 -1.17763 7.77025 -0.0453174 -5.24138e-006 -28.6424 -2.88226e-006 -2.8386e-007 -20.0017 -8.56193e-007 -5.93554 19.6629 -27.4718 -44.0353 -8.5313 43.9264 0.0369162 -5.65447 -78.6591 -11.0787 -4.47493 -8.24068 -1.98785e-015 -4.91992e-015 1.59028e-015 -1.19271e-015 -1.68967e-015 1.59028e-015 3.97569e-016 -4.87022e-015 -0 -1.98785e-015 -4.91992e-015 1.59028e-015 -0.0145735 -8.9345e-005 -3.07591e-006 7.95139e-016 -5.2181e-015 -1.59028e-015 -1.98785e-015 -4.91992e-015 1.59028e-015 -0.0187759 -0.0011755 6.58991e-005 3.97569e-016 2.83268e-015 3.18055e-015 -1.98785e-015 -4.91992e-015 1.59028e-015 -0.0123346 -0.00326298 0.000671035 7.95139e-016 -5.91384e-015 -0 -1.98785e-015 -4.91992e-015 1.59028e-015 -1.19271e-015 -1.68967e-015 1.59028e-015 3.97569e-016 -4.87022e-015 -0 4.86915 19.517 27.8157 44.4703 -8.84495 -44.2959 -0.0398589 -5.65669 78.6545 10.8445 -4.54949 8.19844 9.93923e-016 -1.1778e-014 1.59028e-015 1.19271e-015 9.93923e-016 -0 1.59028e-015 6.4605e-016 -1.59028e-015 9.93923e-016 -1.1778e-014 1.59028e-015 0.0149774 -9.18709e-005 1.69302e-006 1.19271e-015 6.70898e-015 1.59028e-015 9.93923e-016 -1.1778e-014 1.59028e-015 0.0190207 -0.00119102 -5.63401e-005 -1.6072e-007 3.61034e-008 -1.08661e-006 9.93923e-016 -1.1778e-014 1.59028e-015 0.0122678 -0.00324777 -0.000672825 2.78299e-015 -5.51627e-015 -4.77083e-015 9.93923e-016 -1.1778e-014 1.59028e-015 1.19271e-015 9.93923e-016 -0 1.59028e-015 6.4605e-016 -1.59028e-015 -34.5886 -18.7072 -52.6921 -80.2462 48.2402 105.531 17.6836 8.98585 -34.2678 1.16975e-006 -9.19623e-008 1.98291e-006 33.6772 -19.0616 52.9997 82.0998 48.2436 -107.123 -16.8967 7.9864 35.0764 1.54325e-006 4.10266e-007 -1.16272e-006 
-35.7855 8.82143 6.48023 5.64009e-015 60.9968 180 -0.591364 3.79625 -0.0407588 -1.18393 7.59274 -0.0422866 -1.18393 7.59274 -0.0422863 -6.03555e-005 -27.9604 -1.42603e-005 1.60353e-007 -20.0017 1.13603e-007 -6.13961 19.832 -27.132 -43.9377 -8.46276 43.8672 0.0369326 -5.65447 -78.6591 -11.3255 -4.24497 -8.10147 3.97569e-016 -1.45113e-014 -0 -7.95139e-016 -1.4561e-014 1.59028e-015 -0 -1.79403e-014 -0 3.97569e-016 -1.45113e-014 -0 -0.0146579 -8.82311e-005 -7.44352e-006 1.59028e-015 -4.17448e-015 -1.59028e-015 3.97569e-016 -1.45113e-014 -0 -0.0187154 -0.00117904 6.1276e-005 -1.21382e-031 2.18663e-015 3.18055e-015 3.97569e-016 -1.45113e-014 -0 -0.0123447 -0.00326735 0.000680946 1.98785e-015 -5.46658e-016 -0 3.97569e-016 -1.45113e-014 -0 -7.95139e-016 -1.4561e-014 1.59028e-015 -0 -1.79403e-014 -0 5.12338 19.6967 27.4613 44.3515 -8.76055 -44.2193 -0.0398562 -5.65669 78.6545 11.1026 -4.31575 8.06174 -1.59028e-015 -2.33572e-015 -1.59028e-015 -3.97569e-016 -1.18277e-014 -3.18055e-015 5.96354e-016 -2.43511e-015 -3.18055e-015 -1.59028e-015 -2.33572e-015 -1.59028e-015 0.0149768 -9.13545e-005 -4.43144e-006 -1.5556e-007 3.56541e-008 -1.08383e-006 -1.59028e-015 -2.33572e-015 -1.59028e-015 0.0190049 -0.00119517 -6.62069e-005 -5.96354e-016 -3.72721e-015 -4.77083e-015 -1.59028e-015 -2.33572e-015 -1.59028e-015 0.012264 -0.00324489 -0.00068223 9.93923e-016 5.66536e-015 3.18055e-015 -1.59028e-015 -2.33572e-015 -1.59028e-015 -3.97569e-016 -1.18277e-014 -3.18055e-015 5.96354e-016 -2.43511e-015 -3.18055e-015 -35.2843 -18.6223 -53.99 -80.4069 47.9216 106.683 17.1741 9.24964 -34.6234 7.95139e-016 -1.59028e-015 -6.36111e-015 34.3753 -18.9798 54.3374 82.2755 47.8742 -108.411 -16.4103 8.22976 35.5718 -4.78394e-007 1.09489e-006 -1.56199e-008 
-35.7856 8.82134 6.48034 5.64009e-015 60.9968 180 -0.594472 3.70743 -0.0388842 -1.19017 7.41507 -0.0392486 -1.19017 7.41507 -0.039249 -8.03714e-006 -27.2762 -1.12705e-006 1.61102e-007 -20.0017 -2.06112e-007 -6.345 20 -26.7912 -43.84 -8.39434 43.8079 0.0369283 -5.65447 -78.6591 -11.5728 -4.01559 -7.96133 1.19271e-015 1.49089e-015 1.59028e-015 -7.95139e-016 -5.06901e-015 1.59028e-015 1.35176e-031 -4.87022e-015 1.59028e-015 1.19271e-015 1.49089e-015 1.59028e-015 -0.0146078 -8.83983e-005 -7.62556e-007 -0 -1.06847e-014 -0 1.19271e-015 1.49089e-015 1.59028e-015 -0.0187934 -0.00118168 5.8774e-005 3.97569e-016 6.11263e-015 1.59028e-015 1.19271e-015 1.49089e-015 1.59028e-015 -0.0121172 -0.00320965 0.000662173 3.97569e-016 2.08724e-015 1.59028e-015 1.19271e-015 1.49089e-015 1.59028e-015 -7.95139e-016 -5.06901e-015 1.59028e-015 1.35176e-031 -4.87022e-015 1.59028e-015 5.37913 19.8749 27.1055 44.2327 -8.6763 -44.1427 -0.0398614 -5.65669 78.6545 11.3612 -4.08259 7.92399 1.31038e-031 -4.72114e-015 1.59028e-015 -7.95139e-016 -4.47266e-015 -0 7.95139e-016 -4.32357e-015 -0 1.31038e-031 -4.72114e-015 1.59028e-015 0.0149781 -8.87832e-005 -9.94043e-007 1.78906e-015 -1.26228e-014 -3.18055e-015 1.31038e-031 -4.72114e-015 1.59028e-015 0.0190009 -0.00118561 -5.93244e-005 5.96354e-016 -4.62174e-015 -1.59028e-015 1.31038e-031 -4.72114e-015 1.59028e-015 0.0122718 -0.00324773 -0.000679 -3.97569e-016 4.52235e-015 1.59028e-015 1.31038e-031 -4.72114e-015 1.59028e-015 -7.95139e-016 -4.47266e-015 -0 7.95139e-016 -4.32357e-015 -0 -35.9787 -18.5216 -55.2882 -80.5556 47.6006 107.827 16.6665 9.51723 -34.9766 -6.71848e-007 -2.89546e-007 1.20787e-005 35.0721 -18.8817 55.6754 82.4358 47.5018 -109.689 -15.9267 8.47816 36.0651 -1.88129e-006 -1.69854e-007 -2.6948e-007 
-35.7856 8.82126 6.48045 5.64009e-015 60.9968 180 -0.59755 3.61852 -0.0369998 -1.19634 7.23723 -0.0362051 -1.19635 7.23725 -0.0362046 -9.29581e-005 -26.5918 -1.84336e-005 4.16115e-008 -20.0017 -8.40161e-007 -6.5517 20.1669 -26.4493 -43.7422 -8.326 43.7485 0.036926 -5.65447 -78.6591 -11.8207 -3.78675 -7.82018 3.20828e-007 2.58099e-007 -7.51674e-007 1.59028e-015 -1.98785e-015 3.18055e-015 3.97569e-016 -1.88845e-015 3.18055e-015 3.20828e-007 2.58099e-007 -7.51674e-007 -0.0146059 -8.99124e-005 4.73072e-006 3.97569e-016 2.68359e-015 -1.59028e-015 3.20828e-007 2.58099e-007 -7.51674e-007 -0.0187824 -0.00118428 5.85669e-005 -1.19271e-015 2.98177e-016 -0 3.20828e-007 2.58099e-007 -7.51674e-007 -0.0122351 -0.00323499 0.000673296 -3.97569e-016 -1.17283e-014 1.59028e-015 3.20828e-007 2.58099e-007 -7.51674e-007 1.59028e-015 -1.98785e-015 3.18055e-015 3.97569e-016 -1.88845e-015 3.18055e-015 5.63638 20.0517 26.7485 44.1138 -8.5922 -44.0658 -0.0398576 -5.65669 78.6545 11.6203 -3.85 7.7852 -7.95139e-016 1.49089e-016 -1.59028e-015 -1.59028e-015 9.83984e-015 1.59028e-015 -7.95139e-016 1.37658e-014 -0 -7.95139e-016 1.49089e-016 -1.59028e-015 0.0149708 -8.72137e-005 7.72449e-007 -1.98785e-016 1.98785e-015 -1.59028e-015 -7.95139e-016 1.49089e-016 -1.59028e-015 0.0190047 -0.00119042 -6.80306e-005 3.97569e-016 -5.31749e-015 -3.18055e-015 -7.95139e-016 1.49089e-016 -1.59028e-015 0.0122832 -0.00324584 -0.000685047 9.93923e-016 1.4561e-014 1.59028e-015 -7.95139e-016 1.49089e-016 -1.59028e-015 -1.59028e-015 9.83984e-015 1.59028e-015 -7.95139e-016 1.37658e-014 -0 -36.6713 -18.4055 -56.5861 -80.6922 47.2776 108.963 16.1609 9.78863 -35.3274 -2.59443e-006 2.10081e-007 1.45454e-006 35.7671 -18.7676 57.0133 82.5806 47.1269 -110.958 -15.4457 8.73148 36.5564 7.86357e-007 -3.08351e-007 9.60423e-008 
